<?xml version="1.0" encoding="UTF-8"?>
<!DOCTYPE svg PUBLIC "-//W3C//DTD SVG 1.1//EN" "http://www.w3.org/Graphics/SVG/1.1/DTD/svg11.dtd">
<svg version="1.1" xmlns="http://www.w3.org/2000/svg" xmlns:xlink="http://www.w3.org/1999/xlink" x="0" y="0" width="1024" height="350" viewBox="0, 0, 1024, 350">
  <defs>
    <clipPath id="Clip_1">
      <path d="M154.926,116.02 L231.682,116.02 L231.682,202.5 L154.926,202.5 z M205.778,124.02 L181.046,124.02 C176.141,124.02 171.472,125.88 167.833,129.228 L167.682,129.372 L167.358,129.696 C163.674,133.527 161.682,138.338 161.682,143.492 C161.682,151.076 165.291,156.695 171.846,160.273 C178.126,163.408 185.003,164.8 191.943,165.591 C193.792,166.003 195.665,166.286 197.542,166.526 C197.787,166.559 198.622,166.669 198.692,166.678 C199.146,166.739 199.496,166.786 199.837,166.832 C200.69,166.95 201.409,167.055 202.088,167.165 C209.969,168.436 212.766,170.339 212.766,175.028 C212.766,178.629 209.83,181.584 206.318,181.584 L180.29,181.584 C178.683,181.426 177.056,181.047 175.888,179.834 L175.866,179.804 L175.732,179.625 L175.582,179.459 C174.437,178.186 173.842,176.668 173.842,175.028 C173.842,171.435 170.883,168.624 167.33,168.624 C163.813,168.624 160.926,171.511 160.926,175.028 L160.926,175.568 L160.928,175.724 C161.28,180.242 162.709,184.58 165.878,187.942 L166.138,188.288 L166.351,188.572 L166.602,188.824 C170.233,192.454 175.174,194.5 180.29,194.5 L206.318,194.5 C216.909,194.5 225.682,185.727 225.682,175.028 C225.682,167.049 221.797,161.418 214.888,158.056 C210.203,155.777 205.472,154.772 195.816,153.455 C195.541,153.418 195.298,153.385 194.783,153.315 C178.942,151.163 174.598,149.209 174.598,143.492 C174.76,141.755 175.137,140.131 176.447,138.862 L177.067,138.311 C178.258,137.518 179.576,136.894 181.046,136.936 L205.778,136.936 C207.231,136.936 208.575,137.41 209.597,138.261 L210.434,138.932 C211.5,140.236 212.272,141.76 212.226,143.492 C212.226,147.085 215.185,149.896 218.738,149.896 C222.255,149.896 225.142,147.009 225.142,143.492 L225.142,143.384 C225.142,138.268 223.096,133.327 219.465,129.696 L219.141,129.372 L218.991,129.228 C215.352,125.88 210.683,124.02 205.778,124.02 z"/>
    </clipPath>
    <filter id="Shadow_2">
      <feGaussianBlur in="SourceAlpha" stdDeviation="2.5"/>
      <feOffset dx="0" dy="2" result="offsetblur"/>
      <feFlood flood-color="#000000"/>
      <feComposite in2="offsetblur" operator="in"/>
    </filter>
    <clipPath id="Clip_3">
      <path d="M221.994,116.128 L267.97,116.128 L267.97,202.5 L221.994,202.5 z M234.398,124.128 C230.881,124.128 227.994,127.015 227.994,130.532 L227.994,171.032 C227.994,183.945 238.549,194.5 251.462,194.5 L255.566,194.5 C259.083,194.5 261.97,191.613 261.97,188.096 C261.97,184.543 259.159,181.584 255.566,181.584 L251.462,181.584 C245.691,181.584 240.91,176.803 240.91,171.032 L240.91,151.624 L254.486,151.624 C258.111,151.624 260.998,148.737 260.998,145.112 C260.998,141.519 258.039,138.708 254.486,138.708 L240.91,138.708 L240.91,130.532 C240.91,126.939 237.951,124.128 234.398,124.128 z"/>
    </clipPath>
    <filter id="Shadow_4">
      <feGaussianBlur in="SourceAlpha" stdDeviation="2.5"/>
      <feOffset dx="0" dy="2" result="offsetblur"/>
      <feFlood flood-color="#000000"/>
      <feComposite in2="offsetblur" operator="in"/>
    </filter>
    <clipPath id="Clip_5">
      <path d="M257.958,130.816 L321.214,130.816 L321.214,202.5 L257.958,202.5 z M308.702,138.816 C305.109,138.816 302.298,141.775 302.298,145.328 L302.298,170.816 C302.298,176.587 297.301,181.584 291.53,181.584 L287.642,181.584 C281.82,181.277 277.145,176.843 276.874,170.928 L276.874,145.328 C276.874,141.775 274.063,138.816 270.47,138.816 C266.845,138.816 263.958,141.703 263.958,145.328 L263.958,171.032 L263.959,171.139 C264.235,183.955 274.822,194.5 287.642,194.5 L291.53,194.5 C304.35,194.5 314.937,183.955 315.213,171.139 L315.214,171.032 L315.214,145.328 C315.214,141.703 312.327,138.816 308.702,138.816 z"/>
    </clipPath>
    <filter id="Shadow_6">
      <feGaussianBlur in="SourceAlpha" stdDeviation="2.5"/>
      <feOffset dx="0" dy="2" result="offsetblur"/>
      <feFlood flood-color="#000000"/>
      <feComposite in2="offsetblur" operator="in"/>
    </filter>
    <clipPath id="Clip_7">
      <path d="M308.61,116.128 L354.586,116.128 L354.586,202.5 L308.61,202.5 z M342.182,124.128 L338.078,124.128 C325.165,124.128 314.61,134.683 314.61,147.596 L314.61,188.096 C314.61,191.613 317.497,194.5 321.014,194.5 C324.567,194.5 327.526,191.689 327.526,188.096 L327.526,177.976 L341.102,177.976 C344.655,177.976 347.614,175.165 347.614,171.572 C347.614,167.947 344.727,165.06 341.102,165.06 L327.526,165.06 L327.526,147.596 C327.526,141.76 332.265,137.044 338.078,137.044 L342.182,137.044 C345.775,137.044 348.586,134.085 348.586,130.532 C348.586,127.015 345.699,124.128 342.182,124.128 z"/>
    </clipPath>
    <filter id="Shadow_8">
      <feGaussianBlur in="SourceAlpha" stdDeviation="2.5"/>
      <feOffset dx="0" dy="2" result="offsetblur"/>
      <feFlood flood-color="#000000"/>
      <feComposite in2="offsetblur" operator="in"/>
    </filter>
    <clipPath id="Clip_9">
      <path d="M343.71,116.128 L389.686,116.128 L389.686,202.5 L343.71,202.5 z M377.282,124.128 L373.178,124.128 C360.265,124.128 349.71,134.683 349.71,147.596 L349.71,188.096 C349.71,191.613 352.597,194.5 356.114,194.5 C359.667,194.5 362.626,191.689 362.626,188.096 L362.626,177.976 L376.202,177.976 C379.755,177.976 382.714,175.165 382.714,171.572 C382.714,167.947 379.827,165.06 376.202,165.06 L362.626,165.06 L362.626,147.596 C362.626,141.76 367.365,137.044 373.178,137.044 L377.282,137.044 C380.875,137.044 383.686,134.085 383.686,130.532 C383.686,127.015 380.799,124.128 377.282,124.128 z"/>
    </clipPath>
    <filter id="Shadow_10">
      <feGaussianBlur in="SourceAlpha" stdDeviation="2.5"/>
      <feOffset dx="0" dy="2" result="offsetblur"/>
      <feFlood flood-color="#000000"/>
      <feComposite in2="offsetblur" operator="in"/>
    </filter>
    <clipPath id="Clip_11">
      <path d="M378.81,113.701 L453.622,113.701 L453.622,202.5 L378.81,202.5 z M423.182,137.044 C429.338,137.044 434.706,142.317 434.706,148.568 C434.706,154.819 429.338,160.092 423.182,160.092 L397.726,160.092 L397.726,141.332 C397.726,140.166 398.177,139.064 398.961,138.279 L399.258,137.983 L399.355,137.912 C400.13,137.343 401.041,137.044 402.014,137.044 L423.182,137.044 z M401.398,121.701 L398.546,124.553 C395.474,125.133 392.664,126.557 390.343,128.66 L390.251,128.744 L389.838,129.156 C386.629,132.366 384.81,136.772 384.81,141.332 L384.81,188.096 C384.81,191.613 387.697,194.5 391.214,194.5 C394.767,194.5 397.726,191.689 397.726,188.096 L397.726,173.008 L423.398,173.008 L423.501,173.007 C436.751,172.734 447.622,161.821 447.622,148.568 C447.622,135.223 436.527,124.128 423.182,124.128 L402.014,124.128 L401.398,124.157 L401.398,121.701 z"/>
    </clipPath>
    <filter id="Shadow_12">
      <feGaussianBlur in="SourceAlpha" stdDeviation="2.5"/>
      <feOffset dx="0" dy="2" result="offsetblur"/>
      <feFlood flood-color="#000000"/>
      <feComposite in2="offsetblur" operator="in"/>
    </filter>
    <clipPath id="Clip_13">
      <path d="M439.506,118.612 L465.394,118.612 L465.394,202.5 L439.506,202.5 z M452.45,130.5 C454.131,130.5 455.506,131.875 455.506,133.556 C455.506,135.237 454.131,136.612 452.45,136.612 C450.769,136.612 449.394,135.237 449.394,133.556 C449.394,131.875 450.769,130.5 452.45,130.5 z M452.45,126.612 C448.609,126.612 445.506,129.715 445.506,133.556 C445.797,136.448 447.104,139.018 450.047,139.939 C447.228,141.115 446.166,142.83 445.938,145.868 L445.938,188.096 C445.938,191.689 448.897,194.5 452.45,194.5 C455.967,194.5 458.854,191.613 458.854,188.096 L458.854,145.868 C458.598,143.267 457.48,140.828 454.825,139.95 C455.328,139.739 455.897,139.641 456.335,139.316 C458.247,137.899 459.328,135.927 459.394,133.556 C459.394,129.715 456.291,126.612 452.45,126.612 z"/>
    </clipPath>
    <filter id="Shadow_14">
      <feGaussianBlur in="SourceAlpha" stdDeviation="2.5"/>
      <feOffset dx="0" dy="2" result="offsetblur"/>
      <feFlood flood-color="#000000"/>
      <feComposite in2="offsetblur" operator="in"/>
    </filter>
    <clipPath id="Clip_15">
      <path d="M457.002,130.816 L523.822,130.816 L523.822,224.316 L457.002,224.316 z M494.462,151.732 C500.125,151.732 504.906,156.513 504.906,162.176 L504.906,171.14 C504.906,176.803 500.125,181.584 494.462,181.584 L486.362,181.584 C480.845,181.584 475.918,176.844 475.918,171.464 L475.918,162.176 C475.918,156.513 480.699,151.732 486.362,151.732 L494.462,151.732 z M494.462,138.816 L486.362,138.816 C473.665,138.816 463.002,149.479 463.002,162.176 L463.002,209.912 C463.002,213.429 465.889,216.316 469.406,216.316 C472.959,216.316 475.918,213.505 475.918,209.912 L475.918,191.96 C479.727,193.546 482.065,194.548 486.362,194.5 L494.462,194.5 C507.159,194.5 517.822,183.837 517.822,171.14 L517.822,162.176 C517.822,149.479 507.159,138.816 494.462,138.816 z"/>
    </clipPath>
    <filter id="Shadow_16">
      <feGaussianBlur in="SourceAlpha" stdDeviation="2.5"/>
      <feOffset dx="0" dy="2" result="offsetblur"/>
      <feFlood flood-color="#000000"/>
      <feComposite in2="offsetblur" operator="in"/>
    </filter>
    <clipPath id="Clip_17">
      <path d="M513.53,130.816 L581.494,130.816 L581.494,202.5 L513.53,202.5 z M551.81,151.732 C557.581,151.732 562.578,156.729 562.578,162.5 L562.578,164.844 L532.726,164.844 L532.726,162.5 C532.726,156.706 537.747,151.732 543.494,151.732 L551.81,151.732 z M551.81,138.816 L543.494,138.816 C530.581,138.816 519.81,149.587 519.81,162.5 L519.81,167.76 L519.53,167.76 L519.81,168.397 L519.81,169.952 C519.81,183.363 530.068,194.5 543.494,194.5 L563.582,194.5 C567.175,194.5 569.986,191.541 569.986,187.988 C569.986,184.471 567.099,181.584 563.582,181.584 L543.494,181.584 C540.408,181.348 537.388,180.345 535.468,177.76 L567.902,177.76 C572.116,177.76 575.494,174.285 575.494,170.06 L575.494,162.5 C575.494,149.587 564.723,138.816 551.81,138.816 z"/>
    </clipPath>
    <filter id="Shadow_18">
      <feGaussianBlur in="SourceAlpha" stdDeviation="2.5"/>
      <feOffset dx="0" dy="2" result="offsetblur"/>
      <feFlood flood-color="#000000"/>
      <feComposite in2="offsetblur" operator="in"/>
    </filter>
    <clipPath id="Clip_19">
      <path d="M570.618,116.128 L595.534,116.128 L595.534,202.5 L570.618,202.5 z M583.022,124.128 C579.505,124.128 576.618,127.015 576.618,130.532 L576.618,188.096 C576.618,191.613 579.505,194.5 583.022,194.5 C586.575,194.5 589.534,191.689 589.534,188.096 L589.534,130.532 C589.534,126.939 586.575,124.128 583.022,124.128 z"/>
    </clipPath>
    <filter id="Shadow_20">
      <feGaussianBlur in="SourceAlpha" stdDeviation="2.5"/>
      <feOffset dx="0" dy="2" result="offsetblur"/>
      <feFlood flood-color="#000000"/>
      <feComposite in2="offsetblur" operator="in"/>
    </filter>
    <clipPath id="Clip_21">
      <path d="M587.898,118.612 L613.786,118.612 L613.786,202.5 L587.898,202.5 z M600.842,130.5 C602.523,130.5 603.898,131.875 603.898,133.556 C603.898,135.237 602.523,136.612 600.842,136.612 C599.161,136.612 597.786,135.237 597.786,133.556 C597.786,131.875 599.161,130.5 600.842,130.5 z M600.842,126.612 C597.001,126.612 593.898,129.715 593.898,133.556 C594.189,136.448 595.496,139.018 598.439,139.939 C595.62,141.115 594.558,142.83 594.33,145.868 L594.33,188.096 C594.33,191.689 597.289,194.5 600.842,194.5 C604.359,194.5 607.246,191.613 607.246,188.096 L607.246,145.868 C606.99,143.267 605.872,140.828 603.217,139.95 C603.72,139.739 604.289,139.641 604.727,139.316 C606.639,137.899 607.72,135.927 607.786,133.556 C607.786,129.715 604.683,126.612 600.842,126.612 z"/>
    </clipPath>
    <filter id="Shadow_22">
      <feGaussianBlur in="SourceAlpha" stdDeviation="2.5"/>
      <feOffset dx="0" dy="2" result="offsetblur"/>
      <feFlood flood-color="#000000"/>
      <feComposite in2="offsetblur" operator="in"/>
    </filter>
    <clipPath id="Clip_23">
      <path d="M605.394,130.816 L673.078,130.816 L673.078,202.5 L605.394,202.5 z M643.394,138.816 L635.078,138.816 C622.258,138.816 611.671,149.361 611.395,162.176 L611.394,162.284 L611.394,187.988 C611.394,191.613 614.281,194.5 617.906,194.5 C621.499,194.5 624.31,191.541 624.31,187.988 L624.31,162.284 C624.762,156.563 629.215,151.884 635.078,151.732 L643.394,151.732 C649.141,151.732 654.162,156.706 654.162,162.5 L654.162,187.988 C654.162,191.541 656.973,194.5 660.566,194.5 C664.191,194.5 667.078,191.613 667.078,187.988 L667.078,162.284 C667.078,149.576 656.189,138.816 643.394,138.816 z"/>
    </clipPath>
    <filter id="Shadow_24">
      <feGaussianBlur in="SourceAlpha" stdDeviation="2.5"/>
      <feOffset dx="0" dy="2" result="offsetblur"/>
      <feFlood flood-color="#000000"/>
      <feComposite in2="offsetblur" operator="in"/>
    </filter>
    <clipPath id="Clip_25">
      <path d="M662.462,130.816 L730.426,130.816 L730.426,202.5 L662.462,202.5 z M700.742,151.732 C706.513,151.732 711.51,156.729 711.51,162.5 L711.51,164.844 L681.658,164.844 L681.658,162.5 C681.658,156.706 686.679,151.732 692.426,151.732 L700.742,151.732 z M700.742,138.816 L692.426,138.816 C679.513,138.816 668.742,149.587 668.742,162.5 L668.742,167.76 L668.462,167.76 L668.742,168.397 L668.742,169.952 C668.742,183.363 679,194.5 692.426,194.5 L712.514,194.5 C716.107,194.5 718.918,191.541 718.918,187.988 C718.918,184.471 716.031,181.584 712.514,181.584 L692.426,181.584 C689.34,181.348 686.32,180.345 684.4,177.76 L716.834,177.76 C721.048,177.76 724.426,174.285 724.426,170.06 L724.426,162.5 C724.426,149.587 713.655,138.816 700.742,138.816 z"/>
    </clipPath>
    <filter id="Shadow_26">
      <feGaussianBlur in="SourceAlpha" stdDeviation="2.5"/>
      <feOffset dx="0" dy="2" result="offsetblur"/>
      <feFlood flood-color="#000000"/>
      <feComposite in2="offsetblur" operator="in"/>
    </filter>
    <clipPath id="Clip_27">
      <path d="M719.55,170.668 L747.382,170.668 L747.382,202.5 L719.55,202.5 z M733.466,184.5 C734.607,184.5 735.55,185.443 735.55,186.584 C735.55,187.725 734.607,188.668 733.466,188.668 C732.325,188.668 731.382,187.725 731.382,186.584 C731.382,185.443 732.325,184.5 733.466,184.5 z M733.466,178.668 C729.085,178.668 725.55,182.203 725.55,186.584 C725.55,190.965 729.085,194.5 733.466,194.5 C737.847,194.5 741.382,190.965 741.382,186.584 C741.382,182.203 737.847,178.668 733.466,178.668 z"/>
    </clipPath>
    <filter id="Shadow_28">
      <feGaussianBlur in="SourceAlpha" stdDeviation="2.5"/>
      <feOffset dx="0" dy="2" result="offsetblur"/>
      <feFlood flood-color="#000000"/>
      <feComposite in2="offsetblur" operator="in"/>
    </filter>
    <clipPath id="Clip_29">
      <path d="M739.962,130.816 L799.546,130.816 L799.546,202.5 L739.962,202.5 z M787.142,138.816 L769.646,138.816 C756.733,138.816 745.962,149.587 745.962,162.5 L745.962,170.816 C745.962,183.729 756.733,194.5 769.646,194.5 L787.142,194.5 C790.735,194.5 793.546,191.541 793.546,187.988 C793.546,184.471 790.659,181.584 787.142,181.584 L769.646,181.584 C763.875,181.584 758.878,176.587 758.878,170.816 L758.878,162.5 C758.878,156.681 763.921,151.732 769.646,151.732 L787.142,151.732 C790.659,151.732 793.546,148.845 793.546,145.328 C793.546,141.775 790.735,138.816 787.142,138.816 z"/>
    </clipPath>
    <filter id="Shadow_30">
      <feGaussianBlur in="SourceAlpha" stdDeviation="2.5"/>
      <feOffset dx="0" dy="2" result="offsetblur"/>
      <feFlood flood-color="#000000"/>
      <feComposite in2="offsetblur" operator="in"/>
    </filter>
    <clipPath id="Clip_31">
      <path d="M787.266,130.816 L854.95,130.816 L854.95,202.5 L787.266,202.5 z M825.266,151.732 C831.013,151.732 836.034,156.706 836.034,162.5 L836.034,170.816 C836.034,176.587 831.037,181.584 825.266,181.584 L816.95,181.584 C811.222,181.584 806.182,176.521 806.182,170.816 L806.182,162.5 C806.182,156.681 811.225,151.732 816.95,151.732 L825.266,151.732 z M825.266,138.816 L816.95,138.816 C804.037,138.816 793.266,149.587 793.266,162.5 L793.266,170.816 C793.266,183.729 804.037,194.5 816.95,194.5 L825.266,194.5 C838.179,194.5 848.95,183.729 848.95,170.816 L848.95,162.5 C848.95,149.587 838.179,138.816 825.266,138.816 z"/>
    </clipPath>
    <filter id="Shadow_32">
      <feGaussianBlur in="SourceAlpha" stdDeviation="2.5"/>
      <feOffset dx="0" dy="2" result="offsetblur"/>
      <feFlood flood-color="#000000"/>
      <feComposite in2="offsetblur" operator="in"/>
    </filter>
  </defs>
  <g id="Layer_1">
    <g>
      <path d="M205.778,124.02 C210.683,124.02 215.352,125.88 218.991,129.228 L219.141,129.372 L219.465,129.696 C223.096,133.327 225.142,138.268 225.142,143.384 L225.142,143.492 C225.142,147.009 222.255,149.896 218.738,149.896 C215.185,149.896 212.226,147.085 212.226,143.492 C212.272,141.76 211.5,140.236 210.434,138.932 L209.597,138.261 C208.575,137.41 207.231,136.936 205.778,136.936 L181.046,136.936 C179.576,136.894 178.258,137.518 177.067,138.311 L176.447,138.862 C175.137,140.131 174.76,141.755 174.598,143.492 C174.598,149.209 178.942,151.163 194.783,153.315 C195.298,153.385 195.541,153.418 195.816,153.455 C205.472,154.772 210.203,155.777 214.888,158.056 C221.797,161.418 225.682,167.049 225.682,175.028 C225.682,185.727 216.909,194.5 206.318,194.5 L180.29,194.5 C175.174,194.5 170.233,192.454 166.602,188.824 L166.351,188.572 L166.138,188.288 L165.878,187.942 C162.709,184.58 161.28,180.242 160.928,175.724 L160.926,175.568 L160.926,175.028 C160.926,171.511 163.813,168.624 167.33,168.624 C170.883,168.624 173.842,171.435 173.842,175.028 C173.842,176.668 174.437,178.186 175.582,179.459 L175.732,179.625 L175.866,179.804 L175.888,179.834 C177.056,181.047 178.683,181.426 180.29,181.584 L206.318,181.584 C209.83,181.584 212.766,178.629 212.766,175.028 C212.766,170.339 209.969,168.436 202.088,167.165 C201.409,167.055 200.69,166.95 199.837,166.832 C199.496,166.786 199.146,166.739 198.692,166.678 C198.622,166.669 197.787,166.559 197.542,166.526 C195.665,166.286 193.792,166.003 191.943,165.591 C185.003,164.8 178.126,163.408 171.846,160.273 C165.291,156.695 161.682,151.076 161.682,143.492 C161.682,138.338 163.674,133.527 167.358,129.696 L167.682,129.372 L167.833,129.228 C171.472,125.88 176.141,124.02 181.046,124.02 L205.778,124.02 z" clip-path="url(#Clip_1)" filter="url(#Shadow_2)" fill="rgba(0,0,0,0.75)"/>
      <path d="M220.142,143.384 C220.142,139.604 218.63,135.932 215.93,133.232 L215.606,132.908 C212.906,130.424 209.45,129.02 205.778,129.02 L181.046,129.02 C177.374,129.02 173.918,130.424 171.218,132.908 L170.894,133.232 C168.194,136.04 166.682,139.604 166.682,143.492 C166.682,155.48 178.13,158.828 192.818,160.664 C201.242,162.716 217.766,161.312 217.766,175.028 C217.766,181.4 212.582,186.584 206.318,186.584 L180.29,186.584 C177.266,186.584 174.35,185.396 172.19,183.236 L171.866,182.804 C169.922,180.644 168.842,177.944 168.842,175.028 C168.842,174.272 168.194,173.624 167.33,173.624 C166.574,173.624 165.926,174.272 165.926,175.028 L165.926,175.568 C166.034,179.024 167.438,182.372 169.814,184.856 L170.138,185.288 C172.838,187.988 176.51,189.5 180.29,189.5 L206.318,189.5 C214.094,189.5 220.682,183.02 220.682,175.028 C220.682,149.324 169.598,166.928 169.598,143.492 C169.598,140.36 170.786,137.444 172.946,135.284 L173.918,134.42 C175.97,132.8 178.454,131.936 181.046,131.936 L205.778,131.936 C208.37,131.936 210.854,132.8 212.798,134.42 L213.878,135.284 C216.038,137.444 217.226,140.36 217.226,143.492 C217.226,144.248 217.874,144.896 218.738,144.896 C219.494,144.896 220.142,144.248 220.142,143.492 z" fill-opacity="0" stroke="#FFFFFF" stroke-width="10" stroke-opacity="0.007"/>
      <path d="M220.142,143.384 C220.142,139.604 218.63,135.932 215.93,133.232 L215.606,132.908 C212.906,130.424 209.45,129.02 205.778,129.02 L181.046,129.02 C177.374,129.02 173.918,130.424 171.218,132.908 L170.894,133.232 C168.194,136.04 166.682,139.604 166.682,143.492 C166.682,155.48 178.13,158.828 192.818,160.664 C201.242,162.716 217.766,161.312 217.766,175.028 C217.766,181.4 212.582,186.584 206.318,186.584 L180.29,186.584 C177.266,186.584 174.35,185.396 172.19,183.236 L171.866,182.804 C169.922,180.644 168.842,177.944 168.842,175.028 C168.842,174.272 168.194,173.624 167.33,173.624 C166.574,173.624 165.926,174.272 165.926,175.028 L165.926,175.568 C166.034,179.024 167.438,182.372 169.814,184.856 L170.138,185.288 C172.838,187.988 176.51,189.5 180.29,189.5 L206.318,189.5 C214.094,189.5 220.682,183.02 220.682,175.028 C220.682,149.324 169.598,166.928 169.598,143.492 C169.598,140.36 170.786,137.444 172.946,135.284 L173.918,134.42 C175.97,132.8 178.454,131.936 181.046,131.936 L205.778,131.936 C208.37,131.936 210.854,132.8 212.798,134.42 L213.878,135.284 C216.038,137.444 217.226,140.36 217.226,143.492 C217.226,144.248 217.874,144.896 218.738,144.896 C219.494,144.896 220.142,144.248 220.142,143.492 z" fill="#FFFB00"/>
    </g>
    <g>
      <path d="M234.398,124.128 C237.951,124.128 240.91,126.939 240.91,130.532 L240.91,138.708 L254.486,138.708 C258.039,138.708 260.998,141.519 260.998,145.112 C260.998,148.737 258.111,151.624 254.486,151.624 L240.91,151.624 L240.91,171.032 C240.91,176.803 245.691,181.584 251.462,181.584 L255.566,181.584 C259.159,181.584 261.97,184.543 261.97,188.096 C261.97,191.613 259.083,194.5 255.566,194.5 L251.462,194.5 C238.549,194.5 227.994,183.945 227.994,171.032 L227.994,130.532 C227.994,127.015 230.881,124.128 234.398,124.128 z" clip-path="url(#Clip_3)" filter="url(#Shadow_4)" fill="rgba(0,0,0,0.75)"/>
      <path d="M235.91,165.632 L235.91,146.624 L254.486,146.624 C255.35,146.624 255.998,145.976 255.998,145.112 C255.998,144.356 255.35,143.708 254.486,143.708 L235.91,143.708 L235.91,130.532 C235.91,129.776 235.262,129.128 234.398,129.128 C233.642,129.128 232.994,129.776 232.994,130.532 L232.994,171.032 C232.994,181.184 241.31,189.5 251.462,189.5 L255.566,189.5 C256.322,189.5 256.97,188.852 256.97,188.096 C256.97,187.232 256.322,186.584 255.566,186.584 L251.462,186.584 C242.93,186.584 235.91,179.564 235.91,171.032 z" fill-opacity="0" stroke="#FFFFFF" stroke-width="10" stroke-opacity="0.007"/>
      <path d="M235.91,165.632 L235.91,146.624 L254.486,146.624 C255.35,146.624 255.998,145.976 255.998,145.112 C255.998,144.356 255.35,143.708 254.486,143.708 L235.91,143.708 L235.91,130.532 C235.91,129.776 235.262,129.128 234.398,129.128 C233.642,129.128 232.994,129.776 232.994,130.532 L232.994,171.032 C232.994,181.184 241.31,189.5 251.462,189.5 L255.566,189.5 C256.322,189.5 256.97,188.852 256.97,188.096 C256.97,187.232 256.322,186.584 255.566,186.584 L251.462,186.584 C242.93,186.584 235.91,179.564 235.91,171.032 z" fill="#FFFB00"/>
    </g>
    <g>
      <path d="M308.702,138.816 C312.327,138.816 315.214,141.703 315.214,145.328 L315.214,171.032 L315.213,171.139 C314.937,183.955 304.35,194.5 291.53,194.5 L287.642,194.5 C274.822,194.5 264.235,183.955 263.959,171.139 L263.958,171.032 L263.958,145.328 C263.958,141.703 266.845,138.816 270.47,138.816 C274.063,138.816 276.874,141.775 276.874,145.328 L276.874,170.928 C277.145,176.843 281.82,181.277 287.642,181.584 L291.53,181.584 C297.301,181.584 302.298,176.587 302.298,170.816 L302.298,145.328 C302.298,141.775 305.109,138.816 308.702,138.816 z" clip-path="url(#Clip_5)" filter="url(#Shadow_6)" fill="rgba(0,0,0,0.75)"/>
      <path d="M268.958,170.924 L268.958,171.032 C269.174,181.076 277.49,189.5 287.642,189.5 L291.53,189.5 C301.682,189.5 309.998,181.076 310.214,171.032 L310.214,145.328 C310.214,144.464 309.566,143.816 308.702,143.816 C307.946,143.816 307.298,144.464 307.298,145.328 L307.298,170.816 C307.298,179.348 300.062,186.584 291.53,186.584 L287.642,186.584 C279.326,186.584 272.09,179.672 271.874,171.032 L271.874,145.328 C271.874,144.464 271.226,143.816 270.47,143.816 C269.606,143.816 268.958,144.464 268.958,145.328 z" fill-opacity="0" stroke="#FFFFFF" stroke-width="10" stroke-opacity="0.007"/>
      <path d="M268.958,170.924 L268.958,171.032 C269.174,181.076 277.49,189.5 287.642,189.5 L291.53,189.5 C301.682,189.5 309.998,181.076 310.214,171.032 L310.214,145.328 C310.214,144.464 309.566,143.816 308.702,143.816 C307.946,143.816 307.298,144.464 307.298,145.328 L307.298,170.816 C307.298,179.348 300.062,186.584 291.53,186.584 L287.642,186.584 C279.326,186.584 272.09,179.672 271.874,171.032 L271.874,145.328 C271.874,144.464 271.226,143.816 270.47,143.816 C269.606,143.816 268.958,144.464 268.958,145.328 z" fill="#FFFB00"/>
    </g>
    <g>
      <path d="M342.182,124.128 C345.699,124.128 348.586,127.015 348.586,130.532 C348.586,134.085 345.775,137.044 342.182,137.044 L338.078,137.044 C332.265,137.044 327.526,141.76 327.526,147.596 L327.526,165.06 L341.102,165.06 C344.727,165.06 347.614,167.947 347.614,171.572 C347.614,175.165 344.655,177.976 341.102,177.976 L327.526,177.976 L327.526,188.096 C327.526,191.689 324.567,194.5 321.014,194.5 C317.497,194.5 314.61,191.613 314.61,188.096 L314.61,147.596 C314.61,134.683 325.165,124.128 338.078,124.128 L342.182,124.128 z" clip-path="url(#Clip_7)" filter="url(#Shadow_8)" fill="rgba(0,0,0,0.75)"/>
      <path d="M319.61,152.996 L319.61,188.096 C319.61,188.852 320.258,189.5 321.014,189.5 C321.878,189.5 322.526,188.852 322.526,188.096 L322.526,172.976 L341.102,172.976 C341.966,172.976 342.614,172.328 342.614,171.572 C342.614,170.708 341.966,170.06 341.102,170.06 L322.526,170.06 L322.526,147.596 C322.526,138.956 329.546,132.044 338.078,132.044 L342.182,132.044 C342.938,132.044 343.586,131.396 343.586,130.532 C343.586,129.776 342.938,129.128 342.182,129.128 L338.078,129.128 C327.926,129.128 319.61,137.444 319.61,147.596 z" fill-opacity="0" stroke="#FFFFFF" stroke-width="10" stroke-opacity="0.007"/>
      <path d="M319.61,152.996 L319.61,188.096 C319.61,188.852 320.258,189.5 321.014,189.5 C321.878,189.5 322.526,188.852 322.526,188.096 L322.526,172.976 L341.102,172.976 C341.966,172.976 342.614,172.328 342.614,171.572 C342.614,170.708 341.966,170.06 341.102,170.06 L322.526,170.06 L322.526,147.596 C322.526,138.956 329.546,132.044 338.078,132.044 L342.182,132.044 C342.938,132.044 343.586,131.396 343.586,130.532 C343.586,129.776 342.938,129.128 342.182,129.128 L338.078,129.128 C327.926,129.128 319.61,137.444 319.61,147.596 z" fill="#FFFB00"/>
    </g>
    <g>
      <path d="M377.282,124.128 C380.799,124.128 383.686,127.015 383.686,130.532 C383.686,134.085 380.875,137.044 377.282,137.044 L373.178,137.044 C367.365,137.044 362.626,141.76 362.626,147.596 L362.626,165.06 L376.202,165.06 C379.827,165.06 382.714,167.947 382.714,171.572 C382.714,175.165 379.755,177.976 376.202,177.976 L362.626,177.976 L362.626,188.096 C362.626,191.689 359.667,194.5 356.114,194.5 C352.597,194.5 349.71,191.613 349.71,188.096 L349.71,147.596 C349.71,134.683 360.265,124.128 373.178,124.128 L377.282,124.128 z" clip-path="url(#Clip_9)" filter="url(#Shadow_10)" fill="rgba(0,0,0,0.75)"/>
      <path d="M354.71,152.996 L354.71,188.096 C354.71,188.852 355.358,189.5 356.114,189.5 C356.978,189.5 357.626,188.852 357.626,188.096 L357.626,172.976 L376.202,172.976 C377.066,172.976 377.714,172.328 377.714,171.572 C377.714,170.708 377.066,170.06 376.202,170.06 L357.626,170.06 L357.626,147.596 C357.626,138.956 364.646,132.044 373.178,132.044 L377.282,132.044 C378.038,132.044 378.686,131.396 378.686,130.532 C378.686,129.776 378.038,129.128 377.282,129.128 L373.178,129.128 C363.026,129.128 354.71,137.444 354.71,147.596 z" fill-opacity="0" stroke="#FFFFFF" stroke-width="10" stroke-opacity="0.007"/>
      <path d="M354.71,152.996 L354.71,188.096 C354.71,188.852 355.358,189.5 356.114,189.5 C356.978,189.5 357.626,188.852 357.626,188.096 L357.626,172.976 L376.202,172.976 C377.066,172.976 377.714,172.328 377.714,171.572 C377.714,170.708 377.066,170.06 376.202,170.06 L357.626,170.06 L357.626,147.596 C357.626,138.956 364.646,132.044 373.178,132.044 L377.282,132.044 C378.038,132.044 378.686,131.396 378.686,130.532 C378.686,129.776 378.038,129.128 377.282,129.128 L373.178,129.128 C363.026,129.128 354.71,137.444 354.71,147.596 z" fill="#FFFB00"/>
    </g>
    <g>
      <path d="M401.398,121.701 L401.398,124.157 L402.014,124.128 L423.182,124.128 C436.527,124.128 447.622,135.223 447.622,148.568 C447.622,161.821 436.751,172.734 423.501,173.007 L423.398,173.008 L397.726,173.008 L397.726,188.096 C397.726,191.689 394.767,194.5 391.214,194.5 C387.697,194.5 384.81,191.613 384.81,188.096 L384.81,141.332 C384.81,136.772 386.629,132.366 389.838,129.156 L390.251,128.744 L390.343,128.66 C392.664,126.557 395.474,125.133 398.546,124.553 L401.398,121.701 z M423.182,137.044 L402.014,137.044 C401.041,137.044 400.13,137.343 399.355,137.912 L399.258,137.983 L398.961,138.279 C398.177,139.064 397.726,140.166 397.726,141.332 L397.726,160.092 L423.182,160.092 C429.338,160.092 434.706,154.819 434.706,148.568 C434.706,142.317 429.338,137.044 423.182,137.044 z" clip-path="url(#Clip_11)" filter="url(#Shadow_12)" fill="rgba(0,0,0,0.75)"/>
      <path d="M423.398,168.008 C433.874,167.792 442.622,159.152 442.622,148.568 C442.622,137.984 433.766,129.128 423.182,129.128 L402.014,129.128 C398.882,129.128 395.966,130.316 393.698,132.368 L393.374,132.692 C391.106,134.96 389.81,138.092 389.81,141.332 L389.81,188.096 C389.81,188.852 390.458,189.5 391.214,189.5 C392.078,189.5 392.726,188.852 392.726,188.096 L392.726,168.008 z M421.778,165.092 L392.726,165.092 L392.726,141.332 C392.726,138.848 393.698,136.472 395.426,134.744 L396.398,133.772 L396.398,133.88 C398.018,132.692 399.962,132.044 402.014,132.044 L423.182,132.044 C431.93,132.044 439.706,139.388 439.706,148.568 C439.706,157.748 431.93,165.092 423.182,165.092 z" fill-opacity="0" stroke="#FFFFFF" stroke-width="10" stroke-opacity="0.007"/>
      <path d="M423.398,168.008 C433.874,167.792 442.622,159.152 442.622,148.568 C442.622,137.984 433.766,129.128 423.182,129.128 L402.014,129.128 C398.882,129.128 395.966,130.316 393.698,132.368 L393.374,132.692 C391.106,134.96 389.81,138.092 389.81,141.332 L389.81,188.096 C389.81,188.852 390.458,189.5 391.214,189.5 C392.078,189.5 392.726,188.852 392.726,188.096 L392.726,168.008 z M421.778,165.092 L392.726,165.092 L392.726,141.332 C392.726,138.848 393.698,136.472 395.426,134.744 L396.398,133.772 L396.398,133.88 C398.018,132.692 399.962,132.044 402.014,132.044 L423.182,132.044 C431.93,132.044 439.706,139.388 439.706,148.568 C439.706,157.748 431.93,165.092 423.182,165.092 z" fill="#FFFB00"/>
    </g>
    <g>
      <path d="M452.45,126.612 C456.291,126.612 459.394,129.715 459.394,133.556 C459.328,135.927 458.247,137.899 456.335,139.316 C455.897,139.641 455.328,139.739 454.825,139.95 C457.48,140.828 458.598,143.267 458.854,145.868 L458.854,188.096 C458.854,191.613 455.967,194.5 452.45,194.5 C448.897,194.5 445.938,191.689 445.938,188.096 L445.938,145.868 C446.166,142.83 447.228,141.115 450.047,139.939 C447.104,139.018 445.797,136.448 445.506,133.556 C445.506,129.715 448.609,126.612 452.45,126.612 z M452.45,130.5 C450.769,130.5 449.394,131.875 449.394,133.556 C449.394,135.237 450.769,136.612 452.45,136.612 C454.131,136.612 455.506,135.237 455.506,133.556 C455.506,131.875 454.131,130.5 452.45,130.5 z" clip-path="url(#Clip_13)" filter="url(#Shadow_14)" fill="rgba(0,0,0,0.75)"/>
      <path d="M450.938,188.096 C450.938,188.852 451.586,189.5 452.45,189.5 C453.206,189.5 453.854,188.852 453.854,188.096 L453.854,145.868 C453.854,145.004 453.206,144.356 452.45,144.356 C451.586,144.356 450.938,145.004 450.938,145.868 z M452.45,131.612 C451.37,131.612 450.506,132.476 450.506,133.556 C450.506,134.636 451.37,135.5 452.45,135.5 C453.53,135.5 454.394,134.636 454.394,133.556 C454.394,132.476 453.53,131.612 452.45,131.612 z" fill-opacity="0" stroke="#FFFFFF" stroke-width="10" stroke-opacity="0.007"/>
      <path d="M450.938,188.096 C450.938,188.852 451.586,189.5 452.45,189.5 C453.206,189.5 453.854,188.852 453.854,188.096 L453.854,145.868 C453.854,145.004 453.206,144.356 452.45,144.356 C451.586,144.356 450.938,145.004 450.938,145.868 z M452.45,131.612 C451.37,131.612 450.506,132.476 450.506,133.556 C450.506,134.636 451.37,135.5 452.45,135.5 C453.53,135.5 454.394,134.636 454.394,133.556 C454.394,132.476 453.53,131.612 452.45,131.612 z" fill="#FFFB00"/>
    </g>
    <g>
      <path d="M494.462,138.816 C507.159,138.816 517.822,149.479 517.822,162.176 L517.822,171.14 C517.822,183.837 507.159,194.5 494.462,194.5 L486.362,194.5 C482.065,194.548 479.727,193.546 475.918,191.96 L475.918,209.912 C475.918,213.505 472.959,216.316 469.406,216.316 C465.889,216.316 463.002,213.429 463.002,209.912 L463.002,162.176 C463.002,149.479 473.665,138.816 486.362,138.816 L494.462,138.816 z M494.462,151.732 L486.362,151.732 C480.699,151.732 475.918,156.513 475.918,162.176 L475.918,171.464 C475.918,176.844 480.845,181.584 486.362,181.584 L494.462,181.584 C500.125,181.584 504.906,176.803 504.906,171.14 L504.906,162.176 C504.906,156.513 500.125,151.732 494.462,151.732 z" clip-path="url(#Clip_15)" filter="url(#Shadow_16)" fill="rgba(0,0,0,0.75)"/>
      <path d="M468.002,209.912 C468.002,210.668 468.65,211.316 469.406,211.316 C470.27,211.316 470.918,210.668 470.918,209.912 L470.918,181.616 L473.402,184.1 C476.858,187.556 481.502,189.5 486.362,189.5 L494.462,189.5 C504.398,189.5 512.822,181.076 512.822,171.14 L512.822,162.176 C512.822,152.24 504.398,143.816 494.462,143.816 L486.362,143.816 C476.426,143.816 468.002,152.24 468.002,162.176 z M470.918,168.44 L470.918,162.176 C470.918,153.752 477.938,146.732 486.362,146.732 L494.462,146.732 C502.886,146.732 509.906,153.752 509.906,162.176 L509.906,171.14 C509.906,179.564 502.886,186.584 494.462,186.584 L486.362,186.584 C478.262,186.584 470.918,179.78 470.918,171.464 z" fill-opacity="0" stroke="#FFFFFF" stroke-width="10" stroke-opacity="0.007"/>
      <path d="M468.002,209.912 C468.002,210.668 468.65,211.316 469.406,211.316 C470.27,211.316 470.918,210.668 470.918,209.912 L470.918,181.616 L473.402,184.1 C476.858,187.556 481.502,189.5 486.362,189.5 L494.462,189.5 C504.398,189.5 512.822,181.076 512.822,171.14 L512.822,162.176 C512.822,152.24 504.398,143.816 494.462,143.816 L486.362,143.816 C476.426,143.816 468.002,152.24 468.002,162.176 z M470.918,168.44 L470.918,162.176 C470.918,153.752 477.938,146.732 486.362,146.732 L494.462,146.732 C502.886,146.732 509.906,153.752 509.906,162.176 L509.906,171.14 C509.906,179.564 502.886,186.584 494.462,186.584 L486.362,186.584 C478.262,186.584 470.918,179.78 470.918,171.464 z" fill="#FFFB00"/>
    </g>
    <g>
      <path d="M551.81,138.816 C564.723,138.816 575.494,149.587 575.494,162.5 L575.494,170.06 C575.494,174.285 572.116,177.76 567.902,177.76 L535.468,177.76 C537.388,180.345 540.408,181.348 543.494,181.584 L563.582,181.584 C567.099,181.584 569.986,184.471 569.986,187.988 C569.986,191.541 567.175,194.5 563.582,194.5 L543.494,194.5 C530.068,194.5 519.81,183.363 519.81,169.952 L519.81,168.397 L519.53,167.76 L519.81,167.76 L519.81,162.5 C519.81,149.587 530.581,138.816 543.494,138.816 L551.81,138.816 z M551.81,151.732 L543.494,151.732 C537.747,151.732 532.726,156.706 532.726,162.5 L532.726,164.844 L562.578,164.844 L562.578,162.5 C562.578,156.729 557.581,151.732 551.81,151.732 z" clip-path="url(#Clip_17)" filter="url(#Shadow_18)" fill="rgba(0,0,0,0.75)"/>
      <path d="M527.186,172.76 L567.902,172.76 C569.306,172.76 570.494,171.572 570.494,170.06 L570.494,162.5 C570.494,152.348 561.962,143.816 551.81,143.816 L543.494,143.816 C533.342,143.816 524.81,152.348 524.81,162.5 L524.81,169.952 C524.81,180.32 532.586,189.5 543.494,189.5 L563.582,189.5 C564.338,189.5 564.986,188.852 564.986,187.988 C564.986,187.232 564.338,186.584 563.582,186.584 L543.494,186.584 C537.446,186.584 531.614,182.912 529.13,177.188 z M567.578,169.844 L527.726,169.844 L527.726,162.5 C527.726,153.86 535.07,146.732 543.494,146.732 L551.81,146.732 C560.342,146.732 567.578,153.968 567.578,162.5 z" fill-opacity="0" stroke="#FFFFFF" stroke-width="10" stroke-opacity="0.007"/>
      <path d="M527.186,172.76 L567.902,172.76 C569.306,172.76 570.494,171.572 570.494,170.06 L570.494,162.5 C570.494,152.348 561.962,143.816 551.81,143.816 L543.494,143.816 C533.342,143.816 524.81,152.348 524.81,162.5 L524.81,169.952 C524.81,180.32 532.586,189.5 543.494,189.5 L563.582,189.5 C564.338,189.5 564.986,188.852 564.986,187.988 C564.986,187.232 564.338,186.584 563.582,186.584 L543.494,186.584 C537.446,186.584 531.614,182.912 529.13,177.188 z M567.578,169.844 L527.726,169.844 L527.726,162.5 C527.726,153.86 535.07,146.732 543.494,146.732 L551.81,146.732 C560.342,146.732 567.578,153.968 567.578,162.5 z" fill="#FFFB00"/>
    </g>
    <g>
      <path d="M583.022,124.128 C586.575,124.128 589.534,126.939 589.534,130.532 L589.534,188.096 C589.534,191.689 586.575,194.5 583.022,194.5 C579.505,194.5 576.618,191.613 576.618,188.096 L576.618,130.532 C576.618,127.015 579.505,124.128 583.022,124.128 z" clip-path="url(#Clip_19)" filter="url(#Shadow_20)" fill="rgba(0,0,0,0.75)"/>
      <path d="M581.618,188.096 C581.618,188.852 582.266,189.5 583.022,189.5 C583.886,189.5 584.534,188.852 584.534,188.096 L584.534,130.532 C584.534,129.776 583.886,129.128 583.022,129.128 C582.266,129.128 581.618,129.776 581.618,130.532 z" fill-opacity="0" stroke="#FFFFFF" stroke-width="10" stroke-opacity="0.007"/>
      <path d="M581.618,188.096 C581.618,188.852 582.266,189.5 583.022,189.5 C583.886,189.5 584.534,188.852 584.534,188.096 L584.534,130.532 C584.534,129.776 583.886,129.128 583.022,129.128 C582.266,129.128 581.618,129.776 581.618,130.532 z" fill="#FFFB00"/>
    </g>
    <g>
      <path d="M600.842,126.612 C604.683,126.612 607.786,129.715 607.786,133.556 C607.72,135.927 606.639,137.899 604.727,139.316 C604.289,139.641 603.72,139.739 603.217,139.95 C605.872,140.828 606.99,143.267 607.246,145.868 L607.246,188.096 C607.246,191.613 604.359,194.5 600.842,194.5 C597.289,194.5 594.33,191.689 594.33,188.096 L594.33,145.868 C594.558,142.83 595.62,141.115 598.439,139.939 C595.496,139.018 594.189,136.448 593.898,133.556 C593.898,129.715 597.001,126.612 600.842,126.612 z M600.842,130.5 C599.161,130.5 597.786,131.875 597.786,133.556 C597.786,135.237 599.161,136.612 600.842,136.612 C602.523,136.612 603.898,135.237 603.898,133.556 C603.898,131.875 602.523,130.5 600.842,130.5 z" clip-path="url(#Clip_21)" filter="url(#Shadow_22)" fill="rgba(0,0,0,0.75)"/>
      <path d="M599.33,188.096 C599.33,188.852 599.978,189.5 600.842,189.5 C601.598,189.5 602.246,188.852 602.246,188.096 L602.246,145.868 C602.246,145.004 601.598,144.356 600.842,144.356 C599.978,144.356 599.33,145.004 599.33,145.868 z M600.842,131.612 C599.762,131.612 598.898,132.476 598.898,133.556 C598.898,134.636 599.762,135.5 600.842,135.5 C601.922,135.5 602.786,134.636 602.786,133.556 C602.786,132.476 601.922,131.612 600.842,131.612 z" fill-opacity="0" stroke="#FFFFFF" stroke-width="10" stroke-opacity="0.007"/>
      <path d="M599.33,188.096 C599.33,188.852 599.978,189.5 600.842,189.5 C601.598,189.5 602.246,188.852 602.246,188.096 L602.246,145.868 C602.246,145.004 601.598,144.356 600.842,144.356 C599.978,144.356 599.33,145.004 599.33,145.868 z M600.842,131.612 C599.762,131.612 598.898,132.476 598.898,133.556 C598.898,134.636 599.762,135.5 600.842,135.5 C601.922,135.5 602.786,134.636 602.786,133.556 C602.786,132.476 601.922,131.612 600.842,131.612 z" fill="#FFFB00"/>
    </g>
    <g>
      <path d="M643.394,138.816 C656.189,138.816 667.078,149.576 667.078,162.284 L667.078,187.988 C667.078,191.613 664.191,194.5 660.566,194.5 C656.973,194.5 654.162,191.541 654.162,187.988 L654.162,162.5 C654.162,156.706 649.141,151.732 643.394,151.732 L635.078,151.732 C629.215,151.884 624.762,156.563 624.31,162.284 L624.31,187.988 C624.31,191.541 621.499,194.5 617.906,194.5 C614.281,194.5 611.394,191.613 611.394,187.988 L611.394,162.284 L611.395,162.176 C611.671,149.361 622.258,138.816 635.078,138.816 L643.394,138.816 z" clip-path="url(#Clip_23)" filter="url(#Shadow_24)" fill="rgba(0,0,0,0.75)"/>
      <path d="M662.078,162.392 L662.078,162.284 C662.078,152.348 653.438,143.816 643.394,143.816 L635.078,143.816 C624.926,143.816 616.61,152.24 616.394,162.284 L616.394,187.988 C616.394,188.852 617.042,189.5 617.906,189.5 C618.662,189.5 619.31,188.852 619.31,187.988 L619.31,162.176 C619.526,153.86 626.654,146.732 635.078,146.732 L643.394,146.732 C651.818,146.732 659.162,153.86 659.162,162.5 L659.162,187.988 C659.162,188.852 659.81,189.5 660.566,189.5 C661.43,189.5 662.078,188.852 662.078,187.988 z" fill-opacity="0" stroke="#FFFFFF" stroke-width="10" stroke-opacity="0.007"/>
      <path d="M662.078,162.392 L662.078,162.284 C662.078,152.348 653.438,143.816 643.394,143.816 L635.078,143.816 C624.926,143.816 616.61,152.24 616.394,162.284 L616.394,187.988 C616.394,188.852 617.042,189.5 617.906,189.5 C618.662,189.5 619.31,188.852 619.31,187.988 L619.31,162.176 C619.526,153.86 626.654,146.732 635.078,146.732 L643.394,146.732 C651.818,146.732 659.162,153.86 659.162,162.5 L659.162,187.988 C659.162,188.852 659.81,189.5 660.566,189.5 C661.43,189.5 662.078,188.852 662.078,187.988 z" fill="#FFFB00"/>
    </g>
    <g>
      <path d="M700.742,138.816 C713.655,138.816 724.426,149.587 724.426,162.5 L724.426,170.06 C724.426,174.285 721.048,177.76 716.834,177.76 L684.4,177.76 C686.32,180.345 689.34,181.348 692.426,181.584 L712.514,181.584 C716.031,181.584 718.918,184.471 718.918,187.988 C718.918,191.541 716.107,194.5 712.514,194.5 L692.426,194.5 C679,194.5 668.742,183.363 668.742,169.952 L668.742,168.397 L668.462,167.76 L668.742,167.76 L668.742,162.5 C668.742,149.587 679.513,138.816 692.426,138.816 L700.742,138.816 z M700.742,151.732 L692.426,151.732 C686.679,151.732 681.658,156.706 681.658,162.5 L681.658,164.844 L711.51,164.844 L711.51,162.5 C711.51,156.729 706.513,151.732 700.742,151.732 z" clip-path="url(#Clip_25)" filter="url(#Shadow_26)" fill="rgba(0,0,0,0.75)"/>
      <path d="M676.118,172.76 L716.834,172.76 C718.238,172.76 719.426,171.572 719.426,170.06 L719.426,162.5 C719.426,152.348 710.894,143.816 700.742,143.816 L692.426,143.816 C682.274,143.816 673.742,152.348 673.742,162.5 L673.742,169.952 C673.742,180.32 681.518,189.5 692.426,189.5 L712.514,189.5 C713.27,189.5 713.918,188.852 713.918,187.988 C713.918,187.232 713.27,186.584 712.514,186.584 L692.426,186.584 C686.378,186.584 680.546,182.912 678.062,177.188 z M716.51,169.844 L676.658,169.844 L676.658,162.5 C676.658,153.86 684.002,146.732 692.426,146.732 L700.742,146.732 C709.274,146.732 716.51,153.968 716.51,162.5 z" fill-opacity="0" stroke="#FFFFFF" stroke-width="10" stroke-opacity="0.007"/>
      <path d="M676.118,172.76 L716.834,172.76 C718.238,172.76 719.426,171.572 719.426,170.06 L719.426,162.5 C719.426,152.348 710.894,143.816 700.742,143.816 L692.426,143.816 C682.274,143.816 673.742,152.348 673.742,162.5 L673.742,169.952 C673.742,180.32 681.518,189.5 692.426,189.5 L712.514,189.5 C713.27,189.5 713.918,188.852 713.918,187.988 C713.918,187.232 713.27,186.584 712.514,186.584 L692.426,186.584 C686.378,186.584 680.546,182.912 678.062,177.188 z M716.51,169.844 L676.658,169.844 L676.658,162.5 C676.658,153.86 684.002,146.732 692.426,146.732 L700.742,146.732 C709.274,146.732 716.51,153.968 716.51,162.5 z" fill="#FFFB00"/>
    </g>
    <g>
      <path d="M733.466,178.668 C737.847,178.668 741.382,182.203 741.382,186.584 C741.382,190.965 737.847,194.5 733.466,194.5 C729.085,194.5 725.55,190.965 725.55,186.584 C725.55,182.203 729.085,178.668 733.466,178.668 z M733.466,184.5 C732.325,184.5 731.382,185.443 731.382,186.584 C731.382,187.725 732.325,188.668 733.466,188.668 C734.607,188.668 735.55,187.725 735.55,186.584 C735.55,185.443 734.607,184.5 733.466,184.5 z" clip-path="url(#Clip_27)" filter="url(#Shadow_28)" fill="rgba(0,0,0,0.75)"/>
      <path d="M733.466,183.668 C731.846,183.668 730.55,184.964 730.55,186.584 C730.55,188.204 731.846,189.5 733.466,189.5 C735.086,189.5 736.382,188.204 736.382,186.584 C736.382,184.964 735.086,183.668 733.466,183.668 z" fill-opacity="0" stroke="#FFFFFF" stroke-width="10" stroke-opacity="0.007"/>
      <path d="M733.466,183.668 C731.846,183.668 730.55,184.964 730.55,186.584 C730.55,188.204 731.846,189.5 733.466,189.5 C735.086,189.5 736.382,188.204 736.382,186.584 C736.382,184.964 735.086,183.668 733.466,183.668 z" fill="#FFFB00"/>
    </g>
    <g>
      <path d="M787.142,138.816 C790.735,138.816 793.546,141.775 793.546,145.328 C793.546,148.845 790.659,151.732 787.142,151.732 L769.646,151.732 C763.921,151.732 758.878,156.681 758.878,162.5 L758.878,170.816 C758.878,176.587 763.875,181.584 769.646,181.584 L787.142,181.584 C790.659,181.584 793.546,184.471 793.546,187.988 C793.546,191.541 790.735,194.5 787.142,194.5 L769.646,194.5 C756.733,194.5 745.962,183.729 745.962,170.816 L745.962,162.5 C745.962,149.587 756.733,138.816 769.646,138.816 L787.142,138.816 z" clip-path="url(#Clip_29)" filter="url(#Shadow_30)" fill="rgba(0,0,0,0.75)"/>
      <path d="M785.738,186.584 L769.646,186.584 C761.114,186.584 753.878,179.348 753.878,170.816 L753.878,162.5 C753.878,153.752 761.33,146.732 769.646,146.732 L787.142,146.732 C787.898,146.732 788.546,146.084 788.546,145.328 C788.546,144.464 787.898,143.816 787.142,143.816 L769.646,143.816 C759.494,143.816 750.962,152.348 750.962,162.5 L750.962,170.816 C750.962,180.968 759.494,189.5 769.646,189.5 L787.142,189.5 C787.898,189.5 788.546,188.852 788.546,187.988 C788.546,187.232 787.898,186.584 787.142,186.584 z" fill-opacity="0" stroke="#FFFFFF" stroke-width="10" stroke-opacity="0.007"/>
      <path d="M785.738,186.584 L769.646,186.584 C761.114,186.584 753.878,179.348 753.878,170.816 L753.878,162.5 C753.878,153.752 761.33,146.732 769.646,146.732 L787.142,146.732 C787.898,146.732 788.546,146.084 788.546,145.328 C788.546,144.464 787.898,143.816 787.142,143.816 L769.646,143.816 C759.494,143.816 750.962,152.348 750.962,162.5 L750.962,170.816 C750.962,180.968 759.494,189.5 769.646,189.5 L787.142,189.5 C787.898,189.5 788.546,188.852 788.546,187.988 C788.546,187.232 787.898,186.584 787.142,186.584 z" fill="#FFFB00"/>
    </g>
    <g>
      <path d="M825.266,138.816 C838.179,138.816 848.95,149.587 848.95,162.5 L848.95,170.816 C848.95,183.729 838.179,194.5 825.266,194.5 L816.95,194.5 C804.037,194.5 793.266,183.729 793.266,170.816 L793.266,162.5 C793.266,149.587 804.037,138.816 816.95,138.816 L825.266,138.816 z M825.266,151.732 L816.95,151.732 C811.225,151.732 806.182,156.681 806.182,162.5 L806.182,170.816 C806.182,176.521 811.222,181.584 816.95,181.584 L825.266,181.584 C831.037,181.584 836.034,176.587 836.034,170.816 L836.034,162.5 C836.034,156.706 831.013,151.732 825.266,151.732 z" clip-path="url(#Clip_31)" filter="url(#Shadow_32)" fill="rgba(0,0,0,0.75)"/>
      <path d="M816.95,143.816 C806.798,143.816 798.266,152.348 798.266,162.5 L798.266,170.816 C798.266,180.968 806.798,189.5 816.95,189.5 L825.266,189.5 C835.418,189.5 843.95,180.968 843.95,170.816 L843.95,162.5 C843.95,152.348 835.418,143.816 825.266,143.816 z M825.266,146.732 C833.69,146.732 841.034,153.86 841.034,162.5 L841.034,170.816 C841.034,179.348 833.798,186.584 825.266,186.584 L816.95,186.584 C808.418,186.584 801.182,179.24 801.182,170.816 L801.182,162.5 C801.182,153.752 808.634,146.732 816.95,146.732 z" fill-opacity="0" stroke="#FFFFFF" stroke-width="10" stroke-opacity="0.007"/>
      <path d="M816.95,143.816 C806.798,143.816 798.266,152.348 798.266,162.5 L798.266,170.816 C798.266,180.968 806.798,189.5 816.95,189.5 L825.266,189.5 C835.418,189.5 843.95,180.968 843.95,170.816 L843.95,162.5 C843.95,152.348 835.418,143.816 825.266,143.816 z M825.266,146.732 C833.69,146.732 841.034,153.86 841.034,162.5 L841.034,170.816 C841.034,179.348 833.798,186.584 825.266,186.584 L816.95,186.584 C808.418,186.584 801.182,179.24 801.182,170.816 L801.182,162.5 C801.182,153.752 808.634,146.732 816.95,146.732 z" fill="#FFFB00"/>
    </g>
  </g>
  <g id="Layer_2">
    <g>
      <path d="M660.5,12.5 L660.5,36.5 L636.5,36.5" fill-opacity="0" stroke="#222222" stroke-width="27" stroke-linejoin="round"/>
      <path d="M660.5,12.5 L660.5,36.5 L636.5,36.5" fill-opacity="0" stroke="#FFFFFF" stroke-width="19" stroke-linejoin="round"/>
    </g>
    <g>
      <path d="M540.5,96.5 C540.5,96.5 540.5,120.5 516.5,120.5 C492.5,120.5 492.5,96.5 492.5,96.5" fill-opacity="0" stroke="#222222" stroke-width="27" stroke-linejoin="round"/>
      <path d="M540.5,96.5 C540.5,96.5 540.5,120.5 516.5,120.5 C492.5,120.5 492.5,96.5 492.5,96.5" fill-opacity="0" stroke="#FFFFFF" stroke-width="19" stroke-linejoin="round"/>
    </g>
    <g>
      <path d="M768.5,60.5 L768.5,84.5 L744.5,84.5" fill-opacity="0" stroke="#222222" stroke-width="27" stroke-linejoin="round"/>
      <path d="M768.5,60.5 L768.5,84.5 L744.5,84.5" fill-opacity="0" stroke="#FFFFFF" stroke-width="19" stroke-linejoin="round"/>
    </g>
    <g>
      <path d="M636.5,108.5 C636.5,108.5 636.5,84.5 612.5,84.5 C588.5,84.5 588.5,108.5 588.5,108.5" fill-opacity="0" stroke="#222222" stroke-width="27" stroke-linejoin="round"/>
      <path d="M636.5,108.5 C636.5,108.5 636.5,84.5 612.5,84.5 C588.5,84.5 588.5,108.5 588.5,108.5" fill-opacity="0" stroke="#FFFFFF" stroke-width="19" stroke-linejoin="round"/>
    </g>
    <g>
      <path d="M540.5,96.5 L540.5,0.5" fill-opacity="0" stroke="#222222" stroke-width="27" stroke-linejoin="round"/>
      <path d="M540.5,96.5 L540.5,0.5" fill-opacity="0" stroke="#FFFFFF" stroke-width="19" stroke-linejoin="round"/>
    </g>
    <g>
      <path d="M492.5,84.5 C492.5,84.5 492.5,60.5 468.5,60.5" fill-opacity="0" stroke="#222222" stroke-width="27" stroke-linejoin="round"/>
      <path d="M492.5,84.5 C492.5,84.5 492.5,60.5 468.5,60.5" fill-opacity="0" stroke="#FFFFFF" stroke-width="19" stroke-linejoin="round"/>
    </g>
    <g>
      <path d="M696.5,96.5 C696.5,96.5 696.5,72.5 672.5,72.5" fill-opacity="0" stroke="#222222" stroke-width="27" stroke-linejoin="round"/>
      <path d="M696.5,96.5 C696.5,96.5 696.5,72.5 672.5,72.5" fill-opacity="0" stroke="#FFFFFF" stroke-width="19" stroke-linejoin="round"/>
    </g>
    <g>
      <path d="M720.5,48.5 C720.5,48.5 720.5,24.5 696.5,24.5" fill-opacity="0" stroke="#222222" stroke-width="27" stroke-linejoin="round"/>
      <path d="M720.5,48.5 C720.5,48.5 720.5,24.5 696.5,24.5" fill-opacity="0" stroke="#FFFFFF" stroke-width="19" stroke-linejoin="round"/>
    </g>
    <g>
      <path d="M468.5,60.5 L132.5,60.5" fill-opacity="0" stroke="#222222" stroke-width="27" stroke-linejoin="round"/>
      <path d="M468.5,60.5 L132.5,60.5" fill-opacity="0" stroke="#FFFFFF" stroke-width="19" stroke-linejoin="round"/>
    </g>
    <g>
      <path d="M492.5,96.5 L492.5,84.5" fill-opacity="0" stroke="#222222" stroke-width="27" stroke-linejoin="round"/>
      <path d="M492.5,96.5 L492.5,84.5" fill-opacity="0" stroke="#FFFFFF" stroke-width="19" stroke-linejoin="round"/>
    </g>
    <g>
      <path d="M936.5,264.5 C936.5,264.5 936.5,240.5 960.5,240.5" fill-opacity="0" stroke="#222222" stroke-width="27" stroke-linejoin="round"/>
      <path d="M936.5,264.5 C936.5,264.5 936.5,240.5 960.5,240.5" fill-opacity="0" stroke="#FFFFFF" stroke-width="19" stroke-linejoin="round"/>
    </g>
    <g>
      <path d="M108.5,84.5 L108.5,60.5 L132.5,60.5" fill-opacity="0" stroke="#222222" stroke-width="27" stroke-linejoin="round"/>
      <path d="M108.5,84.5 L108.5,60.5 L132.5,60.5" fill-opacity="0" stroke="#FFFFFF" stroke-width="19" stroke-linejoin="round"/>
    </g>
    <g>
      <path d="M108.5,216.5 L108.5,84.5" fill-opacity="0" stroke="#222222" stroke-width="27" stroke-linejoin="round"/>
      <path d="M108.5,216.5 L108.5,84.5" fill-opacity="0" stroke="#FFFFFF" stroke-width="19" stroke-linejoin="round"/>
    </g>
    <g>
      <path d="M108.5,216.5 L108.5,240.5 L132.5,240.5" fill-opacity="0" stroke="#222222" stroke-width="27" stroke-linejoin="round"/>
      <path d="M108.5,216.5 L108.5,240.5 L132.5,240.5" fill-opacity="0" stroke="#FFFFFF" stroke-width="19" stroke-linejoin="round"/>
    </g>
    <g>
      <path d="M228.5,240.5 L132.5,240.5" fill-opacity="0" stroke="#222222" stroke-width="27" stroke-linejoin="round"/>
      <path d="M228.5,240.5 L132.5,240.5" fill-opacity="0" stroke="#FFFFFF" stroke-width="19" stroke-linejoin="round"/>
    </g>
    <g>
      <path d="M996.5,192.5 L996.5,168.5 L972.5,168.5" fill-opacity="0" stroke="#222222" stroke-width="27" stroke-linejoin="round"/>
      <path d="M996.5,192.5 L996.5,168.5 L972.5,168.5" fill-opacity="0" stroke="#FFFFFF" stroke-width="19" stroke-linejoin="round"/>
    </g>
    <g>
      <path d="M912.5,240.5 L912.5,192.5" fill-opacity="0" stroke="#222222" stroke-width="27" stroke-linejoin="round"/>
      <path d="M912.5,240.5 L912.5,192.5" fill-opacity="0" stroke="#FFFFFF" stroke-width="19" stroke-linejoin="round"/>
    </g>
    <g>
      <path d="M276.5,240.5 L252.5,240.5 L252.5,264.5 L252.5,240.5 L228.5,240.5" fill-opacity="0" stroke="#222222" stroke-width="27"/>
      <path d="M276.5,240.5 L252.5,240.5 L252.5,264.5 L252.5,240.5 L228.5,240.5" fill-opacity="0" stroke="#FFFFFF" stroke-width="19"/>
    </g>
    <g>
      <path d="M984.5,324.5 L960.5,324.5 L960.5,348.5 L960.5,324.5 L936.5,324.5" fill-opacity="0" stroke="#222222" stroke-width="27"/>
      <path d="M984.5,324.5 L960.5,324.5 L960.5,348.5 L960.5,324.5 L936.5,324.5" fill-opacity="0" stroke="#FFFFFF" stroke-width="19"/>
    </g>
    <g>
      <path d="M420.5,240.5 L276.5,240.5" fill-opacity="0" stroke="#222222" stroke-width="27" stroke-linejoin="round"/>
      <path d="M420.5,240.5 L276.5,240.5" fill-opacity="0" stroke="#FFFFFF" stroke-width="19" stroke-linejoin="round"/>
    </g>
    <g>
      <path d="M468.5,240.5 L444.5,240.5 L444.5,264.5 L444.5,240.5 L420.5,240.5" fill-opacity="0" stroke="#222222" stroke-width="27"/>
      <path d="M468.5,240.5 L444.5,240.5 L444.5,264.5 L444.5,240.5 L420.5,240.5" fill-opacity="0" stroke="#FFFFFF" stroke-width="19"/>
    </g>
    <g>
      <path d="M612.5,240.5 L468.5,240.5" fill-opacity="0" stroke="#222222" stroke-width="27" stroke-linejoin="round"/>
      <path d="M612.5,240.5 L468.5,240.5" fill-opacity="0" stroke="#FFFFFF" stroke-width="19" stroke-linejoin="round"/>
    </g>
    <g>
      <path d="M660.5,240.5 L636.5,240.5 L636.5,264.5 L636.5,240.5 L612.5,240.5" fill-opacity="0" stroke="#222222" stroke-width="27"/>
      <path d="M660.5,240.5 L636.5,240.5 L636.5,264.5 L636.5,240.5 L612.5,240.5" fill-opacity="0" stroke="#FFFFFF" stroke-width="19"/>
    </g>
    <g>
      <path d="M768.5,240.5 L660.5,240.5" fill-opacity="0" stroke="#222222" stroke-width="27" stroke-linejoin="round"/>
      <path d="M768.5,240.5 L660.5,240.5" fill-opacity="0" stroke="#FFFFFF" stroke-width="19" stroke-linejoin="round"/>
    </g>
    <g>
      <path d="M792.5,264.5 L792.5,240.5 L768.5,240.5" fill-opacity="0" stroke="#222222" stroke-width="27" stroke-linejoin="round"/>
      <path d="M792.5,264.5 L792.5,240.5 L768.5,240.5" fill-opacity="0" stroke="#FFFFFF" stroke-width="19" stroke-linejoin="round"/>
    </g>
    <g>
      <path d="M252.5,312.5 L252.5,264.5" fill-opacity="0" stroke="#222222" stroke-width="27" stroke-linejoin="round"/>
      <path d="M252.5,312.5 L252.5,264.5" fill-opacity="0" stroke="#FFFFFF" stroke-width="19" stroke-linejoin="round"/>
    </g>
    <g>
      <path d="M444.5,312.5 L444.5,264.5" fill-opacity="0" stroke="#222222" stroke-width="27" stroke-linejoin="round"/>
      <path d="M444.5,312.5 L444.5,264.5" fill-opacity="0" stroke="#FFFFFF" stroke-width="19" stroke-linejoin="round"/>
    </g>
    <g>
      <path d="M636.5,312.5 L636.5,264.5" fill-opacity="0" stroke="#222222" stroke-width="27" stroke-linejoin="round"/>
      <path d="M636.5,312.5 L636.5,264.5" fill-opacity="0" stroke="#FFFFFF" stroke-width="19" stroke-linejoin="round"/>
    </g>
    <g>
      <path d="M792.5,312.5 L792.5,264.5" fill-opacity="0" stroke="#222222" stroke-width="27" stroke-linejoin="round"/>
      <path d="M792.5,312.5 L792.5,264.5" fill-opacity="0" stroke="#FFFFFF" stroke-width="19" stroke-linejoin="round"/>
    </g>
  </g>
</svg>
